<svg xmlns="http://www.w3.org/2000/svg" xmlns:xlink="http://www.w3.org/1999/xlink" viewBox="0 0 388 435.625"><defs><style>.a{clip-path:url(#j);}.b{fill:#4cb6f8;stroke:#4cb6f8;stroke-width:0.5px;}.c{filter:url(#g);}.d{filter:url(#e);}.e{filter:url(#c);}.f{filter:url(#a);}</style><filter id="a" x="74.883" y="229.468" width="67.781" height="41.734" filterUnits="userSpaceOnUse"><feOffset dy="3" input="SourceAlpha"/><feGaussianBlur stdDeviation="3" result="b"/><feFlood flood-color="#4cb6f8"/><feComposite operator="in" in2="b"/><feComposite in="SourceGraphic"/></filter><filter id="c" x="244.992" y="229.483" width="67.783" height="41.718" filterUnits="userSpaceOnUse"><feOffset dy="3" input="SourceAlpha"/><feGaussianBlur stdDeviation="3" result="d"/><feFlood flood-color="#4cb6f8"/><feComposite operator="in" in2="d"/><feComposite in="SourceGraphic"/></filter><filter id="e" x="85.544" y="317.311" width="216.569" height="72.484" filterUnits="userSpaceOnUse"><feOffset dy="3" input="SourceAlpha"/><feGaussianBlur stdDeviation="3" result="f"/><feFlood flood-color="#4cb6f8"/><feComposite operator="in" in2="f"/><feComposite in="SourceGraphic"/></filter><filter id="g" x="-9.25" y="-6.42" width="406.155" height="454.295" filterUnits="userSpaceOnUse"><feOffset dy="3" input="SourceAlpha"/><feGaussianBlur stdDeviation="3" result="h"/><feFlood flood-color="#4cb6f8"/><feComposite operator="in" in2="h"/><feComposite in="SourceGraphic"/></filter><clipPath id="j"><rect width="388" height="435.625"/></clipPath></defs><g id="i" class="a"><g transform="translate(-23.357 0)"><g class="f" transform="matrix(1, 0, 0, 1, 23.36, 0)"><path class="b" d="M129.931,245.988a14.917,14.917,0,0,1,10.617,4.4,8.215,8.215,0,1,0,11.618-11.617,31.444,31.444,0,0,0-44.468,0,8.214,8.214,0,0,0,11.616,11.617A14.913,14.913,0,0,1,129.931,245.988Z" transform="translate(-21.16 6.16)"/></g><g class="e" transform="matrix(1, 0, 0, 1, 23.36, 0)"><path class="b" d="M273.361,238.767a8.215,8.215,0,1,0,11.617,11.618,15.032,15.032,0,0,1,21.235,0,8.215,8.215,0,1,0,11.618-11.618A31.481,31.481,0,0,0,273.361,238.767Z" transform="translate(-16.71 6.16)"/></g><g class="d" transform="matrix(1, 0, 0, 1, 23.36, 0)"><path class="b" d="M299.718,317.51a120.359,120.359,0,0,1-170.021,0,8.215,8.215,0,1,0-11.617,11.618,136.807,136.807,0,0,0,193.256,0,8.215,8.215,0,0,0-11.618-11.618Z" transform="translate(-20.88 8.46)"/></g><g class="c" transform="matrix(1, 0, 0, 1, 23.36, 0)"><path class="b" d="M411.012,261a45.623,45.623,0,0,0-37.342-44.8V78.774a53.055,53.055,0,0,0-70.662-50.051L251.435,11.217C211.8-2.235,170.09-3.615,130.8,7.225c-51.436,14.192-80.925,44.2-85.477,86.861a62.361,62.361,0,0,0-9.4,17.718l-4,11.84a14.266,14.266,0,0,0,23.437,14.817A28.669,28.669,0,0,1,60.7,134.4v81.8a45.545,45.545,0,0,0,2.569,90A157.747,157.747,0,0,0,106.4,389.072a154.535,154.535,0,0,0,110.783,46.553h.015A156.58,156.58,0,0,0,371.36,306.161,45.618,45.618,0,0,0,411.012,261ZM340.863,48.252a36.07,36.07,0,0,1,16.378,30.522v107.5a53.373,53.373,0,0,1-45.075-52.655l-.68-90.32A35.971,35.971,0,0,1,340.863,48.252ZM49.888,121.787l1.6-4.724A46.012,46.012,0,0,1,114.5,90.08a62.813,62.813,0,0,0,73.13-15.231l2.035-2.3a8.215,8.215,0,0,0-12.306-10.885l-2.035,2.3a46.286,46.286,0,0,1-53.888,11.223,62.513,62.513,0,0,0-50.94-.8c-1.484.636-2.926,1.345-4.347,2.088C75.7,51.02,98.811,33.094,135.171,23.062c36.1-9.962,74.482-8.678,110.984,3.712l48.9,16.6.641,42.446a144.391,144.391,0,0,1-89.718,56.537A144.427,144.427,0,0,1,99.535,121.332,44.516,44.516,0,0,0,49.888,121.787ZM39.786,261A29.174,29.174,0,0,1,60.7,233.059v44.526q0,5.77.409,11.472A29.176,29.176,0,0,1,39.786,261ZM316.22,378.173A139.142,139.142,0,0,1,217.2,419.194h-.014A138.238,138.238,0,0,1,118.1,377.538a141.541,141.541,0,0,1-40.973-99.954V130.527a28.388,28.388,0,0,1,13.426,4.564,160.776,160.776,0,0,0,118.5,23.4,160.666,160.666,0,0,0,86.684-47.171v22.292a69.808,69.808,0,0,0,61.5,69.219v76.3A139.133,139.133,0,0,1,316.22,378.173Zm57.133-89.144c.2-3.28.317-6.577.317-9.891V233.059a29.12,29.12,0,0,1-.317,55.971Z" transform="translate(-23.36 0)"/></g></g></g></svg>