<svg xmlns="http://www.w3.org/2000/svg" xmlns:xlink="http://www.w3.org/1999/xlink" viewBox="0 0 202 48"><defs><style>.a{clip-path:url(#b);}.b,.c{fill:#679fe5;}.b{font-size:40px;font-family:Roboto-Black, Roboto;font-weight:800;}.d{fill:#fff;stroke:#fff;stroke-width:0.5px;}</style><clipPath id="b"><rect width="202" height="48"/></clipPath></defs><g id="a" class="a"><text class="b" transform="translate(0 38)"><tspan x="0" y="0">Бегинли</tspan></text><g transform="translate(159 3.5)"><path class="c" d="M6.328,0H34.172A6.328,6.328,0,0,1,40.5,6.328V34.172A6.328,6.328,0,0,1,34.172,40.5H6.328A6.328,6.328,0,0,1,0,34.172V6.328A6.328,6.328,0,0,1,6.328,0Z" transform="translate(-1)"/><g transform="translate(-19.357 3.5)"><path class="d" d="M107.2,230.829a1.154,1.154,0,0,1,.822.34.636.636,0,1,0,.9-.9,2.433,2.433,0,0,0-3.441,0,.636.636,0,1,0,.9.9A1.154,1.154,0,0,1,107.2,230.829Z" transform="translate(-75.424 -211.317)"/><path class="d" d="M271.141,230.284a.636.636,0,1,0,.9.9,1.163,1.163,0,0,1,1.643,0,.636.636,0,0,0,.9-.9A2.436,2.436,0,0,0,271.141,230.284Z" transform="translate(-227.923 -211.33)"/><path class="d" d="M129.916,315.29a9.314,9.314,0,0,1-13.157,0,.636.636,0,0,0-.9.9,10.587,10.587,0,0,0,14.955,0,.636.636,0,0,0-.9-.9Z" transform="translate(-84.981 -290.065)"/><path class="d" d="M53.356,20.2a3.531,3.531,0,0,0-2.89-3.467V6.1A4.106,4.106,0,0,0,45,2.223L41.007.868A15.837,15.837,0,0,0,31.672.559c-3.98,1.1-6.262,3.421-6.615,6.722a4.826,4.826,0,0,0-.728,1.371l-.31.916a1.1,1.1,0,0,0,1.814,1.147,2.218,2.218,0,0,1,.414-.314v6.33a3.525,3.525,0,0,0,.2,6.964,12.207,12.207,0,0,0,3.338,6.414,11.959,11.959,0,0,0,8.573,3.6h0a12.117,12.117,0,0,0,11.93-10.019A3.53,3.53,0,0,0,53.356,20.2ZM47.927,3.734A2.791,2.791,0,0,1,49.195,6.1v8.319a4.13,4.13,0,0,1-3.488-4.075l-.053-6.99A2.784,2.784,0,0,1,47.927,3.734ZM25.41,9.424l.124-.366A3.561,3.561,0,0,1,30.41,6.971,4.861,4.861,0,0,0,36.07,5.792l.157-.178a.636.636,0,0,0-.952-.842l-.157.178a3.582,3.582,0,0,1-4.17.869,4.838,4.838,0,0,0-3.942-.062c-.115.049-.226.1-.336.162.739-1.97,2.527-3.357,5.341-4.134a14.57,14.57,0,0,1,8.589.287l3.784,1.285.05,3.285a11.174,11.174,0,0,1-6.943,4.375,11.177,11.177,0,0,1-8.237-1.627A3.445,3.445,0,0,0,25.41,9.424ZM24.628,20.2a2.258,2.258,0,0,1,1.618-2.162v3.446q0,.446.032.888A2.258,2.258,0,0,1,24.628,20.2ZM46.02,29.265a10.768,10.768,0,0,1-7.663,3.174h0a10.7,10.7,0,0,1-7.668-3.224,10.953,10.953,0,0,1-3.171-7.735V10.1a2.2,2.2,0,0,1,1.039.353,12.442,12.442,0,0,0,9.17,1.811,12.433,12.433,0,0,0,6.708-3.65V10.34a5.4,5.4,0,0,0,4.76,5.357v5.9A10.767,10.767,0,0,1,46.02,29.265Zm4.421-6.9c.016-.254.025-.509.025-.765V18.035a2.254,2.254,0,0,1-.025,4.331Z" transform="translate(0 0)"/></g></g></g></svg>